<svg xmlns="http://www.w3.org/2000/svg" width="416.209" height="381.643"><g data-name="Group 2174"><path data-name="Path 387" d="M10.948 56.734a4.321 4.321 0 1 1-4.321-4.32 4.323 4.323 0 0 1 4.321 4.32z" fill="#6f95cd"/><path data-name="Path 388" d="M11.664 73.454a5.038 5.038 0 1 1-5.038-5.038 5.039 5.039 0 0 1 5.038 5.038z" fill="#6f95cd"/><path data-name="Path 389" d="M11.759 140.333a5.132 5.132 0 1 1-5.132-5.132 5.133 5.133 0 0 1 5.132 5.132z" fill="#6f95cd"/><path data-name="Path 390" d="M28.593 56.733a5.245 5.245 0 1 1-5.245-5.245 5.248 5.248 0 0 1 5.245 5.245z" fill="#6f95cd"/><path data-name="Path 391" d="M30.256 73.456a6.91 6.91 0 1 1-6.909-6.91 6.912 6.912 0 0 1 6.909 6.91z" fill="#6f95cd"/><path data-name="Path 392" d="M31.46 90.174a8.112 8.112 0 1 1-8.112-8.113 8.115 8.115 0 0 1 8.112 8.113z" fill="#cd117a"/><path data-name="Path 393" d="M31.353 106.894a8.006 8.006 0 1 1-8.005-8.007 8.008 8.008 0 0 1 8.005 8.007z" fill="#cd117a"/><path data-name="Path 394" d="M31.695 123.614a8.348 8.348 0 1 1-8.348-8.349 8.352 8.352 0 0 1 8.348 8.349z" fill="#6f95cd"/><path data-name="Path 395" d="M31.618 140.33a8.271 8.271 0 1 1-8.27-8.27 8.274 8.274 0 0 1 8.27 8.27z" fill="#6f95cd"/><path data-name="Path 396" d="M30.003 173.774a6.661 6.661 0 1 1-6.66-6.662 6.663 6.663 0 0 1 6.66 6.662z" fill="#6f95cd"/><path data-name="Path 397" d="M30.143 207.214a6.591 6.591 0 1 1-6.591-6.593 6.593 6.593 0 0 1 6.591 6.593z" fill="#6f95cd"/><path data-name="Path 398" d="M28.004 257.37a4.451 4.451 0 1 1-4.452-4.452 4.454 4.454 0 0 1 4.452 4.452z" fill="#6f95cd"/><path data-name="Path 399" d="M46.88 56.733a6.813 6.813 0 1 1-6.814-6.812 6.816 6.816 0 0 1 6.814 6.812z" fill="#6f95cd"/><path data-name="Path 400" d="M48.426 73.457a8.36 8.36 0 1 1-8.36-8.36 8.363 8.363 0 0 1 8.36 8.36z" fill="#6f95cd"/><path data-name="Path 401" d="M48.426 90.174a8.36 8.36 0 1 1-8.36-8.36 8.363 8.363 0 0 1 8.36 8.36z" fill="#6f95cd"/><path data-name="Path 402" d="M48.426 106.893a8.36 8.36 0 1 1-8.36-8.36 8.363 8.363 0 0 1 8.36 8.36z" fill="#6f95cd"/><path data-name="Path 403" d="M48.426 123.614a8.36 8.36 0 1 1-8.36-8.36 8.364 8.364 0 0 1 8.36 8.36z" fill="#6f95cd"/><path data-name="Path 404" d="M48.426 140.333a8.36 8.36 0 1 1-8.36-8.359 8.363 8.363 0 0 1 8.36 8.359z" fill="#6f95cd"/><path data-name="Path 405" d="M48.426 157.053a8.36 8.36 0 1 1-8.36-8.36 8.363 8.363 0 0 1 8.36 8.36z" fill="#6f95cd"/><path data-name="Path 406" d="M48.426 173.773a8.36 8.36 0 1 1-8.36-8.36 8.363 8.363 0 0 1 8.36 8.36z" fill="#6f95cd"/><path data-name="Path 407" d="M48.426 190.493a8.36 8.36 0 1 1-8.36-8.36 8.363 8.363 0 0 1 8.36 8.36z" fill="#6f95cd"/><path data-name="Path 408" d="M48.426 207.213a8.36 8.36 0 1 1-8.36-8.36 8.364 8.364 0 0 1 8.36 8.36z" fill="#6f95cd"/><path data-name="Path 409" d="M48.249 223.933a8.181 8.181 0 1 1-8.182-8.181 8.184 8.184 0 0 1 8.182 8.181z" fill="#6f95cd"/><path data-name="Path 410" d="M47.565 240.653a7.5 7.5 0 1 1-7.5-7.5 7.5 7.5 0 0 1 7.5 7.5z" fill="#6f95cd"/><path data-name="Path 411" d="M46.977 257.373a6.91 6.91 0 1 1-6.91-6.91 6.912 6.912 0 0 1 6.91 6.91z" fill="#6f95cd"/><path data-name="Path 412" d="M61.557 274.095a4.77 4.77 0 1 1-4.77-4.77 4.772 4.772 0 0 1 4.77 4.77z" fill="#6f95cd"/><path data-name="Path 413" d="M64.746 56.733a7.958 7.958 0 1 1-7.958-7.958 7.961 7.961 0 0 1 7.958 7.958z" fill="#6f95cd"/><path data-name="Path 414" d="M65.147 73.457a8.36 8.36 0 1 1-8.36-8.36 8.363 8.363 0 0 1 8.36 8.36z" fill="#6f95cd"/><path data-name="Path 415" d="M65.147 90.174a8.36 8.36 0 1 1-8.36-8.36 8.363 8.363 0 0 1 8.36 8.36z" fill="#6f95cd"/><path data-name="Path 416" d="M65.147 106.893a8.36 8.36 0 1 1-8.36-8.36 8.363 8.363 0 0 1 8.36 8.36z" fill="#6f95cd"/><path data-name="Path 417" d="M65.147 123.614a8.36 8.36 0 1 1-8.36-8.36 8.364 8.364 0 0 1 8.36 8.36z" fill="#6f95cd"/><path data-name="Path 418" d="M65.147 140.333a8.36 8.36 0 1 1-8.36-8.359 8.363 8.363 0 0 1 8.36 8.359z" fill="#6f95cd"/><path data-name="Path 419" d="M65.147 157.053a8.36 8.36 0 1 1-8.36-8.36 8.363 8.363 0 0 1 8.36 8.36z" fill="#6f95cd"/><path data-name="Path 420" d="M65.147 173.773a8.36 8.36 0 1 1-8.36-8.36 8.363 8.363 0 0 1 8.36 8.36z" fill="#6f95cd"/><path data-name="Path 421" d="M65.147 190.493a8.36 8.36 0 1 1-8.36-8.36 8.363 8.363 0 0 1 8.36 8.36z" fill="#6f95cd"/><path data-name="Path 422" d="M65.147 207.213a8.36 8.36 0 1 1-8.36-8.36 8.364 8.364 0 0 1 8.36 8.36z" fill="#6f95cd"/><path data-name="Path 423" d="M65.147 223.932a8.36 8.36 0 1 1-8.36-8.359 8.363 8.363 0 0 1 8.36 8.359z" fill="#6f95cd"/><path data-name="Path 424" d="M65.147 240.653a8.36 8.36 0 1 1-8.36-8.36 8.363 8.363 0 0 1 8.36 8.36z" fill="#6f95cd"/><path data-name="Path 425" d="M65.147 257.373a8.36 8.36 0 1 1-8.36-8.36 8.363 8.363 0 0 1 8.36 8.36z" fill="#6f95cd"/><path data-name="Path 426" d="M78.791 40.014a5.284 5.284 0 1 1-5.285-5.283 5.286 5.286 0 0 1 5.285 5.283z" fill="#6f95cd"/><path data-name="Path 427" d="M81.871 56.733a8.36 8.36 0 1 1-8.36-8.359 8.363 8.363 0 0 1 8.36 8.359z" fill="#6f95cd"/><path data-name="Path 428" d="M81.871 73.457a8.36 8.36 0 1 1-8.36-8.36 8.363 8.363 0 0 1 8.36 8.36z" fill="#6f95cd"/><path data-name="Path 429" d="M81.871 90.174a8.36 8.36 0 1 1-8.36-8.36 8.363 8.363 0 0 1 8.36 8.36z" fill="#6f95cd"/><path data-name="Path 430" d="M81.871 106.893a8.36 8.36 0 1 1-8.36-8.36 8.363 8.363 0 0 1 8.36 8.36z" fill="#6f95cd"/><path data-name="Path 431" d="M81.871 123.614a8.36 8.36 0 1 1-8.36-8.36 8.364 8.364 0 0 1 8.36 8.36z" fill="#6f95cd"/><path data-name="Path 432" d="M81.871 140.333a8.36 8.36 0 1 1-8.36-8.359 8.363 8.363 0 0 1 8.36 8.359z" fill="#6f95cd"/><path data-name="Path 433" d="M81.871 157.053a8.36 8.36 0 1 1-8.36-8.36 8.363 8.363 0 0 1 8.36 8.36z" fill="#6f95cd"/><path data-name="Path 434" d="M81.871 173.773a8.36 8.36 0 1 1-8.36-8.36 8.363 8.363 0 0 1 8.36 8.36z" fill="#6f95cd"/><path data-name="Path 435" d="M81.871 190.493a8.36 8.36 0 1 1-8.36-8.36 8.363 8.363 0 0 1 8.36 8.36z" fill="#6f95cd"/><path data-name="Path 436" d="M81.871 207.213a8.36 8.36 0 1 1-8.36-8.36 8.364 8.364 0 0 1 8.36 8.36z" fill="#6f95cd"/><path data-name="Path 437" d="M81.871 223.932a8.36 8.36 0 1 1-8.36-8.359 8.363 8.363 0 0 1 8.36 8.359z" fill="#6f95cd"/><path data-name="Path 438" d="M81.871 240.653a8.36 8.36 0 1 1-8.36-8.36 8.363 8.363 0 0 1 8.36 8.36z" fill="#cd117a"/><path data-name="Path 439" d="M81.871 257.373a8.36 8.36 0 1 1-8.36-8.36 8.363 8.363 0 0 1 8.36 8.36z" fill="#6f95cd"/><path data-name="Path 440" d="M81.479 274.093a7.97 7.97 0 1 1-7.971-7.971 7.974 7.974 0 0 1 7.971 7.971z" fill="#6f95cd"/><path data-name="Path 441" d="M97.039 40.015a6.812 6.812 0 1 1-6.812-6.814 6.815 6.815 0 0 1 6.812 6.814z" fill="#6f95cd"/><path data-name="Path 442" d="M98.583 56.733a8.36 8.36 0 1 1-8.36-8.359 8.363 8.363 0 0 1 8.36 8.359z" fill="#6f95cd"/><path data-name="Path 443" d="M98.583 73.457a8.36 8.36 0 1 1-8.36-8.36 8.363 8.363 0 0 1 8.36 8.36z" fill="#6f95cd"/><path data-name="Path 444" d="M98.583 90.174a8.36 8.36 0 1 1-8.36-8.36 8.363 8.363 0 0 1 8.36 8.36z" fill="#cd117a"/><path data-name="Path 445" d="M98.583 106.893a8.36 8.36 0 1 1-8.36-8.36 8.363 8.363 0 0 1 8.36 8.36z" fill="#cd117a"/><path data-name="Path 446" d="M98.583 123.614a8.36 8.36 0 1 1-8.36-8.36 8.364 8.364 0 0 1 8.36 8.36z" fill="#6f95cd"/><path data-name="Path 447" d="M98.583 140.333a8.36 8.36 0 1 1-8.36-8.359 8.363 8.363 0 0 1 8.36 8.359z" fill="#6f95cd"/><path data-name="Path 448" d="M98.583 157.053a8.36 8.36 0 1 1-8.36-8.36 8.363 8.363 0 0 1 8.36 8.36z" fill="#6f95cd"/><path data-name="Path 449" d="M98.583 173.773a8.36 8.36 0 1 1-8.36-8.36 8.363 8.363 0 0 1 8.36 8.36z" fill="#6f95cd"/><path data-name="Path 450" d="M98.583 190.493a8.36 8.36 0 1 1-8.36-8.36 8.363 8.363 0 0 1 8.36 8.36z" fill="#6f95cd"/><path data-name="Path 451" d="M98.583 207.213a8.36 8.36 0 1 1-8.36-8.36 8.364 8.364 0 0 1 8.36 8.36z" fill="#6f95cd"/><path data-name="Path 452" d="M98.583 223.932a8.36 8.36 0 1 1-8.36-8.359 8.363 8.363 0 0 1 8.36 8.359z" fill="#6f95cd"/><path data-name="Path 453" d="M98.583 240.653a8.36 8.36 0 1 1-8.36-8.36 8.363 8.363 0 0 1 8.36 8.36z" fill="#6f95cd"/><path data-name="Path 454" d="M98.583 257.373a8.36 8.36 0 1 1-8.36-8.36 8.363 8.363 0 0 1 8.36 8.36z" fill="#6f95cd"/><path data-name="Path 455" d="M98.583 274.092a8.36 8.36 0 1 1-8.36-8.36 8.363 8.363 0 0 1 8.36 8.36z" fill="#6f95cd"/><path data-name="Path 456" d="M96.199 290.813a5.973 5.973 0 1 1-5.973-5.973 5.975 5.975 0 0 1 5.973 5.973z" fill="#6f95cd"/><path data-name="Path 457" d="M113.165 23.294a6.219 6.219 0 1 1-6.218-6.22 6.221 6.221 0 0 1 6.218 6.22z" fill="#6f95cd"/><path data-name="Path 458" d="M115.306 40.014a8.36 8.36 0 1 1-8.359-8.36 8.363 8.363 0 0 1 8.359 8.36z" fill="#6f95cd"/><path data-name="Path 459" d="M115.306 56.733a8.36 8.36 0 1 1-8.359-8.359 8.363 8.363 0 0 1 8.359 8.359z" fill="#6f95cd"/><path data-name="Path 460" d="M115.306 73.457a8.36 8.36 0 1 1-8.359-8.36 8.363 8.363 0 0 1 8.359 8.36z" fill="#6f95cd"/><path data-name="Path 461" d="M115.306 90.174a8.36 8.36 0 1 1-8.359-8.36 8.362 8.362 0 0 1 8.359 8.36z" fill="#6f95cd"/><path data-name="Path 462" d="M115.306 106.893a8.36 8.36 0 1 1-8.359-8.36 8.363 8.363 0 0 1 8.359 8.36z" fill="#6f95cd"/><path data-name="Path 463" d="M115.306 123.614a8.36 8.36 0 1 1-8.359-8.36 8.363 8.363 0 0 1 8.359 8.36z" fill="#6f95cd"/><path data-name="Path 464" d="M115.306 140.333a8.36 8.36 0 1 1-8.359-8.359 8.363 8.363 0 0 1 8.359 8.359z" fill="#6f95cd"/><path data-name="Path 465" d="M115.306 157.053a8.36 8.36 0 1 1-8.359-8.36 8.363 8.363 0 0 1 8.359 8.36z" fill="#6f95cd"/><path data-name="Path 466" d="M115.306 173.773a8.36 8.36 0 1 1-8.359-8.36 8.362 8.362 0 0 1 8.359 8.36z" fill="#6f95cd"/><path data-name="Path 467" d="M115.306 190.493a8.36 8.36 0 1 1-8.359-8.36 8.363 8.363 0 0 1 8.359 8.36z" fill="#6f95cd"/><path data-name="Path 468" d="M115.306 207.213a8.36 8.36 0 1 1-8.359-8.36 8.364 8.364 0 0 1 8.359 8.36z" fill="#6f95cd"/><path data-name="Path 469" d="M115.306 223.932a8.36 8.36 0 1 1-8.359-8.359 8.363 8.363 0 0 1 8.359 8.359z" fill="#6f95cd"/><path data-name="Path 470" d="M115.306 240.653a8.36 8.36 0 1 1-8.359-8.36 8.363 8.363 0 0 1 8.359 8.36z" fill="#6f95cd"/><path data-name="Path 471" d="M115.306 257.373a8.36 8.36 0 1 1-8.359-8.36 8.362 8.362 0 0 1 8.359 8.36z" fill="#6f95cd"/><path data-name="Path 472" d="M115.306 274.092a8.36 8.36 0 1 1-8.359-8.36 8.363 8.363 0 0 1 8.359 8.36z" fill="#6f95cd"/><path data-name="Path 473" d="M115.299 290.813a8.349 8.349 0 1 1-8.349-8.349 8.353 8.353 0 0 1 8.349 8.349z" fill="#6f95cd"/><path data-name="Path 474" d="M114.983 307.532a8.042 8.042 0 1 1-8.041-8.041 8.045 8.045 0 0 1 8.041 8.041z" fill="#6f95cd"/><path data-name="Path 475" d="M131.576 23.294a7.91 7.91 0 1 1-7.91-7.91 7.913 7.913 0 0 1 7.91 7.91z" fill="#6f95cd"/><path data-name="Path 476" d="M132.026 40.014a8.36 8.36 0 1 1-8.36-8.36 8.364 8.364 0 0 1 8.36 8.36z" fill="#6f95cd"/><path data-name="Path 477" d="M132.026 56.733a8.36 8.36 0 1 1-8.36-8.359 8.363 8.363 0 0 1 8.36 8.359z" fill="#6f95cd"/><path data-name="Path 478" d="M132.026 73.457a8.36 8.36 0 1 1-8.36-8.36 8.363 8.363 0 0 1 8.36 8.36z" fill="#6f95cd"/><path data-name="Path 479" d="M132.026 90.174a8.36 8.36 0 1 1-8.36-8.36 8.363 8.363 0 0 1 8.36 8.36z" fill="#6f95cd"/><path data-name="Path 480" d="M132.026 106.893a8.36 8.36 0 1 1-8.36-8.36 8.363 8.363 0 0 1 8.36 8.36z" fill="#6f95cd"/><path data-name="Path 481" d="M132.026 123.614a8.36 8.36 0 1 1-8.36-8.36 8.364 8.364 0 0 1 8.36 8.36z" fill="#6f95cd"/><path data-name="Path 482" d="M132.026 140.333a8.36 8.36 0 1 1-8.36-8.359 8.363 8.363 0 0 1 8.36 8.359z" fill="#6f95cd"/><path data-name="Path 483" d="M132.026 157.053a8.36 8.36 0 1 1-8.36-8.36 8.363 8.363 0 0 1 8.36 8.36z" fill="#6f95cd"/><path data-name="Path 484" d="M132.026 173.773a8.36 8.36 0 1 1-8.36-8.36 8.363 8.363 0 0 1 8.36 8.36z" fill="#6f95cd"/><path data-name="Path 485" d="M132.026 190.493a8.36 8.36 0 1 1-8.36-8.36 8.363 8.363 0 0 1 8.36 8.36z" fill="#6f95cd"/><path data-name="Path 486" d="M132.026 207.213a8.36 8.36 0 1 1-8.36-8.36 8.364 8.364 0 0 1 8.36 8.36z" fill="#6f95cd"/><path data-name="Path 487" d="M132.026 223.932a8.36 8.36 0 1 1-8.36-8.359 8.363 8.363 0 0 1 8.36 8.359z" fill="#cd117a"/><path data-name="Path 488" d="M132.026 240.653a8.36 8.36 0 1 1-8.36-8.36 8.363 8.363 0 0 1 8.36 8.36z" fill="#6f95cd"/><path data-name="Path 489" d="M132.026 257.373a8.36 8.36 0 1 1-8.36-8.36 8.363 8.363 0 0 1 8.36 8.36z" fill="#6f95cd"/><path data-name="Path 490" d="M132.026 274.092a8.36 8.36 0 1 1-8.36-8.36 8.363 8.363 0 0 1 8.36 8.36z" fill="#6f95cd"/><path data-name="Path 491" d="M132.011 290.813a8.349 8.349 0 1 1-8.349-8.349 8.352 8.352 0 0 1 8.349 8.349z" fill="#6f95cd"/><path data-name="Path 492" d="M145.631 6.574a5.246 5.246 0 1 1-5.245-5.246 5.247 5.247 0 0 1 5.245 5.246z" fill="#6f95cd"/><path data-name="Path 493" d="M148.746 23.294a8.36 8.36 0 1 1-8.36-8.36 8.363 8.363 0 0 1 8.36 8.36z" fill="#6f95cd"/><path data-name="Path 494" d="M148.746 40.014a8.36 8.36 0 1 1-8.36-8.36 8.364 8.364 0 0 1 8.36 8.36z" fill="#6f95cd"/><path data-name="Path 495" d="M148.746 56.733a8.36 8.36 0 1 1-8.36-8.359 8.363 8.363 0 0 1 8.36 8.359z" fill="#cd117a"/><path data-name="Path 496" d="M148.746 73.457a8.36 8.36 0 1 1-8.36-8.36 8.363 8.363 0 0 1 8.36 8.36z" fill="#6f95cd"/><path data-name="Path 497" d="M148.746 90.174a8.36 8.36 0 1 1-8.36-8.36 8.363 8.363 0 0 1 8.36 8.36z" fill="#6f95cd"/><path data-name="Path 498" d="M148.746 106.893a8.36 8.36 0 1 1-8.36-8.36 8.363 8.363 0 0 1 8.36 8.36z" fill="#6f95cd"/><path data-name="Path 499" d="M148.746 123.614a8.36 8.36 0 1 1-8.36-8.36 8.364 8.364 0 0 1 8.36 8.36z" fill="#6f95cd"/><path data-name="Path 500" d="M148.746 140.333a8.36 8.36 0 1 1-8.36-8.359 8.363 8.363 0 0 1 8.36 8.359z" fill="#6f95cd"/><path data-name="Path 501" d="M148.746 157.053a8.36 8.36 0 1 1-8.36-8.36 8.363 8.363 0 0 1 8.36 8.36z" fill="#6f95cd"/><path data-name="Path 502" d="M148.746 173.773a8.36 8.36 0 1 1-8.36-8.36 8.363 8.363 0 0 1 8.36 8.36z" fill="#6f95cd"/><path data-name="Path 503" d="M148.746 190.493a8.36 8.36 0 1 1-8.36-8.36 8.363 8.363 0 0 1 8.36 8.36z" fill="#cd117a"/><path data-name="Path 504" d="M148.746 207.213a8.36 8.36 0 1 1-8.36-8.36 8.364 8.364 0 0 1 8.36 8.36z" fill="#6f95cd"/><path data-name="Path 505" d="M148.746 223.932a8.36 8.36 0 1 1-8.36-8.359 8.363 8.363 0 0 1 8.36 8.359z" fill="#6f95cd"/><path data-name="Path 506" d="M148.746 240.653a8.36 8.36 0 1 1-8.36-8.36 8.363 8.363 0 0 1 8.36 8.36z" fill="#6f95cd"/><path data-name="Path 507" d="M148.746 257.373a8.36 8.36 0 1 1-8.36-8.36 8.363 8.363 0 0 1 8.36 8.36z" fill="#6f95cd"/><path data-name="Path 508" d="M148.746 274.092a8.36 8.36 0 1 1-8.36-8.36 8.363 8.363 0 0 1 8.36 8.36z" fill="#6f95cd"/><path data-name="Path 509" d="M148.746 290.817a8.36 8.36 0 1 1-8.36-8.36 8.364 8.364 0 0 1 8.36 8.36z" fill="#6f95cd"/><path data-name="Path 510" d="M163.68 6.575A6.574 6.574 0 1 1 157.105 0a6.577 6.577 0 0 1 6.575 6.575z" fill="#6f95cd"/><path data-name="Path 511" d="M165.466 23.294a8.36 8.36 0 1 1-8.36-8.36 8.363 8.363 0 0 1 8.36 8.36z" fill="#6f95cd"/><path data-name="Path 512" d="M165.466 40.014a8.36 8.36 0 1 1-8.36-8.36 8.364 8.364 0 0 1 8.36 8.36z" fill="#6f95cd"/><path data-name="Path 513" d="M165.466 56.733a8.36 8.36 0 1 1-8.36-8.359 8.363 8.363 0 0 1 8.36 8.359z" fill="#6f95cd"/><path data-name="Path 514" d="M165.466 73.457a8.36 8.36 0 1 1-8.36-8.36 8.363 8.363 0 0 1 8.36 8.36z" fill="#6f95cd"/><path data-name="Path 515" d="M165.466 90.174a8.36 8.36 0 1 1-8.36-8.36 8.363 8.363 0 0 1 8.36 8.36z" fill="#6f95cd"/><path data-name="Path 516" d="M165.466 106.893a8.36 8.36 0 1 1-8.36-8.36 8.363 8.363 0 0 1 8.36 8.36z" fill="#6f95cd"/><path data-name="Path 517" d="M165.466 123.614a8.36 8.36 0 1 1-8.36-8.36 8.364 8.364 0 0 1 8.36 8.36z" fill="#cd117a"/><path data-name="Path 518" d="M165.466 140.333a8.36 8.36 0 1 1-8.36-8.359 8.363 8.363 0 0 1 8.36 8.359z" fill="#6f95cd"/><path data-name="Path 519" d="M165.466 157.053a8.36 8.36 0 1 1-8.36-8.36 8.363 8.363 0 0 1 8.36 8.36z" fill="#6f95cd"/><path data-name="Path 520" d="M165.466 173.773a8.36 8.36 0 1 1-8.36-8.36 8.363 8.363 0 0 1 8.36 8.36z" fill="#6f95cd"/><path data-name="Path 521" d="M165.466 190.493a8.36 8.36 0 1 1-8.36-8.36 8.363 8.363 0 0 1 8.36 8.36z" fill="#6f95cd"/><path data-name="Path 522" d="M165.466 207.213a8.36 8.36 0 1 1-8.36-8.36 8.364 8.364 0 0 1 8.36 8.36z" fill="#6f95cd"/><path data-name="Path 523" d="M165.466 223.932a8.36 8.36 0 1 1-8.36-8.359 8.363 8.363 0 0 1 8.36 8.359z" fill="#6f95cd"/><path data-name="Path 524" d="M165.466 240.653a8.36 8.36 0 1 1-8.36-8.36 8.363 8.363 0 0 1 8.36 8.36z" fill="#6f95cd"/><path data-name="Path 525" d="M165.466 257.373a8.36 8.36 0 1 1-8.36-8.36 8.363 8.363 0 0 1 8.36 8.36z" fill="#6f95cd"/><path data-name="Path 526" d="M165.466 274.092a8.36 8.36 0 1 1-8.36-8.36 8.363 8.363 0 0 1 8.36 8.36z" fill="#6f95cd"/><path data-name="Path 527" d="M165.466 290.817a8.36 8.36 0 1 1-8.36-8.36 8.364 8.364 0 0 1 8.36 8.36z" fill="#6f95cd"/><path data-name="Path 528" d="M165.185 307.532a8.078 8.078 0 1 1-8.074-8.077 8.082 8.082 0 0 1 8.079 8.077z" fill="#6f95cd"/><path data-name="Path 529" d="M181.561 23.292a7.735 7.735 0 1 1-7.735-7.735 7.738 7.738 0 0 1 7.735 7.735z" fill="#6f95cd"/><path data-name="Path 530" d="M182.186 40.014a8.36 8.36 0 1 1-8.36-8.36 8.364 8.364 0 0 1 8.36 8.36z" fill="#cd117a"/><path data-name="Path 531" d="M182.186 56.733a8.36 8.36 0 1 1-8.36-8.359 8.363 8.363 0 0 1 8.36 8.359z" fill="#6f95cd"/><path data-name="Path 532" d="M182.186 73.457a8.36 8.36 0 1 1-8.36-8.36 8.363 8.363 0 0 1 8.36 8.36z" fill="#cd117a"/><path data-name="Path 533" d="M182.186 90.174a8.36 8.36 0 1 1-8.36-8.36 8.363 8.363 0 0 1 8.36 8.36z" fill="#6f95cd"/><path data-name="Path 534" d="M182.186 106.893a8.36 8.36 0 1 1-8.36-8.36 8.363 8.363 0 0 1 8.36 8.36z" fill="#6f95cd"/><path data-name="Path 535" d="M182.186 123.614a8.36 8.36 0 1 1-8.36-8.36 8.364 8.364 0 0 1 8.36 8.36z" fill="#6f95cd"/><path data-name="Path 536" d="M182.186 140.333a8.36 8.36 0 1 1-8.36-8.359 8.363 8.363 0 0 1 8.36 8.359z" fill="#6f95cd"/><path data-name="Path 537" d="M182.186 157.053a8.36 8.36 0 1 1-8.36-8.36 8.363 8.363 0 0 1 8.36 8.36z" fill="#6f95cd"/><path data-name="Path 538" d="M182.186 173.773a8.36 8.36 0 1 1-8.36-8.36 8.363 8.363 0 0 1 8.36 8.36z" fill="#6f95cd"/><path data-name="Path 539" d="M182.186 190.493a8.36 8.36 0 1 1-8.36-8.36 8.363 8.363 0 0 1 8.36 8.36z" fill="#6f95cd"/><path data-name="Path 540" d="M182.186 207.213a8.36 8.36 0 1 1-8.36-8.36 8.364 8.364 0 0 1 8.36 8.36z" fill="#6f95cd"/><path data-name="Path 541" d="M182.186 223.932a8.36 8.36 0 1 1-8.36-8.359 8.363 8.363 0 0 1 8.36 8.359z" fill="#6f95cd"/><path data-name="Path 542" d="M182.186 240.653a8.36 8.36 0 1 1-8.36-8.36 8.363 8.363 0 0 1 8.36 8.36z" fill="#6f95cd"/><path data-name="Path 543" d="M182.186 257.373a8.36 8.36 0 1 1-8.36-8.36 8.363 8.363 0 0 1 8.36 8.36z" fill="#6f95cd"/><path data-name="Path 544" d="M182.186 274.092a8.36 8.36 0 1 1-8.36-8.36 8.363 8.363 0 0 1 8.36 8.36z" fill="#6f95cd"/><path data-name="Path 545" d="M182.186 290.817a8.36 8.36 0 1 1-8.36-8.36 8.364 8.364 0 0 1 8.36 8.36z" fill="#6f95cd"/><path data-name="Path 546" d="M182.186 307.529a8.36 8.36 0 1 1-8.36-8.359 8.363 8.363 0 0 1 8.36 8.359z" fill="#6f95cd"/><path data-name="Path 547" d="M181.587 324.252a7.761 7.761 0 1 1-7.761-7.761 7.764 7.764 0 0 1 7.761 7.761z" fill="#6f95cd"/><path data-name="Path 548" d="M198.905 56.733a8.36 8.36 0 1 1-8.359-8.359 8.363 8.363 0 0 1 8.359 8.359z" fill="#6f95cd"/><path data-name="Path 549" d="M198.905 73.457a8.36 8.36 0 1 1-8.359-8.36 8.363 8.363 0 0 1 8.359 8.36z" fill="#6f95cd"/><path data-name="Path 550" d="M198.905 90.174a8.36 8.36 0 1 1-8.359-8.36 8.362 8.362 0 0 1 8.359 8.36z" fill="#6f95cd"/><path data-name="Path 551" d="M198.905 106.893a8.36 8.36 0 1 1-8.359-8.36 8.363 8.363 0 0 1 8.359 8.36z" fill="#6f95cd"/><path data-name="Path 552" d="M198.905 123.614a8.36 8.36 0 1 1-8.359-8.36 8.364 8.364 0 0 1 8.359 8.36z" fill="#6f95cd"/><path data-name="Path 553" d="M198.905 140.333a8.36 8.36 0 1 1-8.359-8.359 8.363 8.363 0 0 1 8.359 8.359z" fill="#6f95cd"/><path data-name="Path 554" d="M198.905 157.053a8.36 8.36 0 1 1-8.359-8.36 8.363 8.363 0 0 1 8.359 8.36z" fill="#6f95cd"/><path data-name="Path 555" d="M198.905 173.773a8.36 8.36 0 1 1-8.359-8.36 8.362 8.362 0 0 1 8.359 8.36z" fill="#6f95cd"/><path data-name="Path 556" d="M198.905 190.493a8.36 8.36 0 1 1-8.359-8.36 8.363 8.363 0 0 1 8.359 8.36z" fill="#6f95cd"/><path data-name="Path 557" d="M198.905 207.213a8.36 8.36 0 1 1-8.359-8.36 8.364 8.364 0 0 1 8.359 8.36z" fill="#6f95cd"/><path data-name="Path 558" d="M198.905 223.932a8.36 8.36 0 1 1-8.359-8.359 8.363 8.363 0 0 1 8.359 8.359z" fill="#6f95cd"/><path data-name="Path 559" d="M198.905 240.653a8.36 8.36 0 1 1-8.359-8.36 8.363 8.363 0 0 1 8.359 8.36z" fill="#6f95cd"/><path data-name="Path 560" d="M198.905 257.373a8.36 8.36 0 1 1-8.359-8.36 8.362 8.362 0 0 1 8.359 8.36z" fill="#6f95cd"/><path data-name="Path 561" d="M198.905 274.092a8.36 8.36 0 1 1-8.359-8.36 8.363 8.363 0 0 1 8.359 8.36z" fill="#6f95cd"/><path data-name="Path 562" d="M198.905 290.817a8.36 8.36 0 1 1-8.359-8.36 8.364 8.364 0 0 1 8.359 8.36z" fill="#6f95cd"/><path data-name="Path 563" d="M198.905 307.529a8.36 8.36 0 1 1-8.359-8.359 8.363 8.363 0 0 1 8.359 8.359z" fill="#6f95cd"/><path data-name="Path 564" d="M198.895 324.252a8.349 8.349 0 1 1-8.349-8.349 8.353 8.353 0 0 1 8.349 8.349z" fill="#cd117a"/><path data-name="Path 565" d="M197.276 340.972a6.729 6.729 0 1 1-6.729-6.729 6.732 6.732 0 0 1 6.729 6.729z" fill="#6f95cd"/><path data-name="Path 566" d="M213.909 40.014a6.644 6.644 0 1 1-6.644-6.644 6.646 6.646 0 0 1 6.644 6.644z" fill="#6f95cd"/><path data-name="Path 567" d="M215.627 56.733a8.36 8.36 0 1 1-8.36-8.359 8.363 8.363 0 0 1 8.36 8.359z" fill="#6f95cd"/><path data-name="Path 568" d="M215.627 73.457a8.36 8.36 0 1 1-8.36-8.36 8.363 8.363 0 0 1 8.36 8.36z" fill="#6f95cd"/><path data-name="Path 569" d="M215.627 90.174a8.36 8.36 0 1 1-8.36-8.36 8.363 8.363 0 0 1 8.36 8.36z" fill="#6f95cd"/><path data-name="Path 570" d="M215.627 106.893a8.36 8.36 0 1 1-8.36-8.36 8.363 8.363 0 0 1 8.36 8.36z" fill="#6f95cd"/><path data-name="Path 571" d="M215.627 123.614a8.36 8.36 0 1 1-8.36-8.36 8.364 8.364 0 0 1 8.36 8.36z" fill="#6f95cd"/><path data-name="Path 572" d="M215.627 140.333a8.36 8.36 0 1 1-8.36-8.359 8.363 8.363 0 0 1 8.36 8.359z" fill="#6f95cd"/><path data-name="Path 573" d="M215.627 157.053a8.36 8.36 0 1 1-8.36-8.36 8.363 8.363 0 0 1 8.36 8.36z" fill="#6f95cd"/><path data-name="Path 574" d="M215.627 173.773a8.36 8.36 0 1 1-8.36-8.36 8.363 8.363 0 0 1 8.36 8.36z" fill="#6f95cd"/><path data-name="Path 575" d="M215.627 190.493a8.36 8.36 0 1 1-8.36-8.36 8.363 8.363 0 0 1 8.36 8.36z" fill="#6f95cd"/><path data-name="Path 576" d="M215.627 207.213a8.36 8.36 0 1 1-8.357-8.358 8.364 8.364 0 0 1 8.36 8.36z" fill="#6f95cd"/><path data-name="Path 577" d="M215.627 223.932a8.36 8.36 0 1 1-8.36-8.359 8.363 8.363 0 0 1 8.36 8.359z" fill="#6f95cd"/><path data-name="Path 578" d="M215.627 240.653a8.36 8.36 0 1 1-8.36-8.36 8.363 8.363 0 0 1 8.36 8.36z" fill="#6f95cd"/><path data-name="Path 579" d="M215.627 257.373a8.36 8.36 0 1 1-8.36-8.36 8.363 8.363 0 0 1 8.36 8.36z" fill="#6f95cd"/><path data-name="Path 580" d="M215.627 274.092a8.36 8.36 0 1 1-8.36-8.36 8.363 8.363 0 0 1 8.36 8.36z" fill="#6f95cd"/><path data-name="Path 581" d="M215.627 290.817a8.36 8.36 0 1 1-8.36-8.36 8.364 8.364 0 0 1 8.36 8.36z" fill="#6f95cd"/><path data-name="Path 582" d="M215.627 307.529a8.36 8.36 0 1 1-8.36-8.359 8.363 8.363 0 0 1 8.36 8.359z" fill="#cd117a"/><path data-name="Path 583" d="M215.627 324.252a8.36 8.36 0 1 1-8.36-8.36 8.363 8.363 0 0 1 8.36 8.36z" fill="#6f95cd"/><path data-name="Path 584" d="M215.627 340.973a8.36 8.36 0 1 1-8.36-8.36 8.363 8.363 0 0 1 8.36 8.36z" fill="#6f95cd"/><path data-name="Path 585" d="M214.924 357.692a7.658 7.658 0 1 1-7.659-7.657 7.662 7.662 0 0 1 7.659 7.657z" fill="#6f95cd"/><path data-name="Path 586" d="M231.708 40.014a7.722 7.722 0 1 1-7.722-7.722 7.725 7.725 0 0 1 7.722 7.722z" fill="#6f95cd"/><path data-name="Path 587" d="M232.346 56.733a8.36 8.36 0 1 1-8.36-8.359 8.363 8.363 0 0 1 8.36 8.359z" fill="#6f95cd"/><path data-name="Path 588" d="M232.346 73.457a8.36 8.36 0 1 1-8.36-8.36 8.363 8.363 0 0 1 8.36 8.36z" fill="#6f95cd"/><path data-name="Path 589" d="M232.346 90.174a8.36 8.36 0 1 1-8.36-8.36 8.363 8.363 0 0 1 8.36 8.36z" fill="#6f95cd"/><path data-name="Path 590" d="M232.346 106.893a8.36 8.36 0 1 1-8.36-8.36 8.363 8.363 0 0 1 8.36 8.36z" fill="#6f95cd"/><path data-name="Path 591" d="M232.346 123.614a8.36 8.36 0 1 1-8.36-8.36 8.364 8.364 0 0 1 8.36 8.36z" fill="#6f95cd"/><path data-name="Path 592" d="M232.346 140.333a8.36 8.36 0 1 1-8.36-8.359 8.363 8.363 0 0 1 8.36 8.359z" fill="#6f95cd"/><path data-name="Path 593" d="M232.346 157.053a8.36 8.36 0 1 1-8.36-8.36 8.363 8.363 0 0 1 8.36 8.36z" fill="#6f95cd"/><path data-name="Path 594" d="M232.346 173.773a8.36 8.36 0 1 1-8.36-8.36 8.363 8.363 0 0 1 8.36 8.36z" fill="#6f95cd"/><path data-name="Path 595" d="M232.346 190.493a8.36 8.36 0 1 1-8.36-8.36 8.363 8.363 0 0 1 8.36 8.36z" fill="#6f95cd"/><path data-name="Path 596" d="M232.346 207.213a8.36 8.36 0 1 1-8.364-8.358 8.364 8.364 0 0 1 8.36 8.36z" fill="#6f95cd"/><path data-name="Path 597" d="M232.346 223.932a8.36 8.36 0 1 1-8.36-8.359 8.363 8.363 0 0 1 8.36 8.359z" fill="#6f95cd"/><path data-name="Path 598" d="M232.346 240.653a8.36 8.36 0 1 1-8.36-8.36 8.363 8.363 0 0 1 8.36 8.36z" fill="#6f95cd"/><path data-name="Path 599" d="M232.346 257.373a8.36 8.36 0 1 1-8.36-8.36 8.363 8.363 0 0 1 8.36 8.36z" fill="#6f95cd"/><path data-name="Path 600" d="M232.346 274.092a8.36 8.36 0 1 1-8.36-8.36 8.363 8.363 0 0 1 8.36 8.36z" fill="#6f95cd"/><path data-name="Path 601" d="M232.346 290.817a8.36 8.36 0 1 1-8.36-8.36 8.364 8.364 0 0 1 8.36 8.36z" fill="#6f95cd"/><path data-name="Path 602" d="M232.346 307.529a8.36 8.36 0 1 1-8.36-8.359 8.363 8.363 0 0 1 8.36 8.359z" fill="#6f95cd"/><path data-name="Path 603" d="M232.346 324.252a8.36 8.36 0 1 1-8.36-8.36 8.363 8.363 0 0 1 8.36 8.36z" fill="#6f95cd"/><path data-name="Path 604" d="M232.346 340.973a8.36 8.36 0 1 1-8.36-8.36 8.363 8.363 0 0 1 8.36 8.36z" fill="#6f95cd"/><path data-name="Path 605" d="M228.238 357.692a4.252 4.252 0 1 1-4.252-4.252 4.254 4.254 0 0 1 4.252 4.252z" fill="#6f95cd"/><path data-name="Path 606" d="M249 40.014a8.293 8.293 0 1 1-8.294-8.294A8.3 8.3 0 0 1 249 40.014z" fill="#6f95cd"/><path data-name="Path 607" d="M249.065 56.733a8.36 8.36 0 1 1-8.36-8.359 8.363 8.363 0 0 1 8.36 8.359z" fill="#6f95cd"/><path data-name="Path 608" d="M249.065 73.457a8.36 8.36 0 1 1-8.36-8.36 8.363 8.363 0 0 1 8.36 8.36z" fill="#6f95cd"/><path data-name="Path 609" d="M249.065 90.174a8.36 8.36 0 1 1-8.36-8.36 8.363 8.363 0 0 1 8.36 8.36z" fill="#6f95cd"/><path data-name="Path 610" d="M249.065 106.893a8.36 8.36 0 1 1-8.36-8.36 8.363 8.363 0 0 1 8.36 8.36z" fill="#6f95cd"/><path data-name="Path 611" d="M249.065 123.614a8.36 8.36 0 1 1-8.36-8.36 8.364 8.364 0 0 1 8.36 8.36z" fill="#6f95cd"/><path data-name="Path 612" d="M249.065 140.333a8.36 8.36 0 1 1-8.36-8.359 8.363 8.363 0 0 1 8.36 8.359z" fill="#6f95cd"/><path data-name="Path 613" d="M249.065 157.053a8.36 8.36 0 1 1-8.36-8.36 8.363 8.363 0 0 1 8.36 8.36z" fill="#6f95cd"/><path data-name="Path 614" d="M249.065 173.773a8.36 8.36 0 1 1-8.36-8.36 8.363 8.363 0 0 1 8.36 8.36z" fill="#6f95cd"/><path data-name="Path 615" d="M249.065 190.493a8.36 8.36 0 1 1-8.36-8.36 8.363 8.363 0 0 1 8.36 8.36z" fill="#6f95cd"/><path data-name="Path 616" d="M249.065 207.213a8.36 8.36 0 1 1-8.36-8.36 8.364 8.364 0 0 1 8.36 8.36z" fill="#6f95cd"/><path data-name="Path 617" d="M249.065 223.932a8.36 8.36 0 1 1-8.36-8.359 8.363 8.363 0 0 1 8.36 8.359z" fill="#6f95cd"/><path data-name="Path 618" d="M249.065 240.653a8.36 8.36 0 1 1-8.36-8.36 8.363 8.363 0 0 1 8.36 8.36z" fill="#6f95cd"/><path data-name="Path 619" d="M249.065 257.373a8.36 8.36 0 1 1-8.36-8.36 8.363 8.363 0 0 1 8.36 8.36z" fill="#6f95cd"/><path data-name="Path 620" d="M249.065 274.092a8.36 8.36 0 1 1-8.36-8.36 8.363 8.363 0 0 1 8.36 8.36z" fill="#6f95cd"/><path data-name="Path 621" d="M249.065 290.817a8.36 8.36 0 1 1-8.36-8.36 8.364 8.364 0 0 1 8.36 8.36z" fill="#6f95cd"/><path data-name="Path 622" d="M249.065 307.529a8.36 8.36 0 1 1-8.36-8.359 8.363 8.363 0 0 1 8.36 8.359z" fill="#6f95cd"/><path data-name="Path 623" d="M249.065 324.252a8.36 8.36 0 1 1-8.36-8.36 8.363 8.363 0 0 1 8.36 8.36z" fill="#6f95cd"/><path data-name="Path 624" d="M249.065 340.973a8.36 8.36 0 1 1-8.36-8.36 8.363 8.363 0 0 1 8.36 8.36z" fill="#6f95cd"/><path data-name="Path 625" d="M248.899 357.692a8.192 8.192 0 1 1-8.193-8.193 8.2 8.2 0 0 1 8.193 8.193z" fill="#6f95cd"/><path data-name="Path 626" d="M246.29 374.413a5.584 5.584 0 1 1-5.585-5.585 5.586 5.586 0 0 1 5.585 5.585z" fill="#6f95cd"/><path data-name="Path 627" d="M265.361 40.014a7.935 7.935 0 1 1-7.935-7.935 7.937 7.937 0 0 1 7.935 7.935z" fill="#6f95cd"/><path data-name="Path 628" d="M265.786 56.733a8.36 8.36 0 1 1-8.36-8.359 8.363 8.363 0 0 1 8.36 8.359z" fill="#cd117a"/><path data-name="Path 629" d="M265.786 73.457a8.36 8.36 0 1 1-8.36-8.36 8.363 8.363 0 0 1 8.36 8.36z" fill="#6f95cd"/><path data-name="Path 630" d="M265.786 90.174a8.36 8.36 0 1 1-8.36-8.36 8.363 8.363 0 0 1 8.36 8.36z" fill="#6f95cd"/><path data-name="Path 631" d="M265.786 106.893a8.36 8.36 0 1 1-8.36-8.36 8.363 8.363 0 0 1 8.36 8.36z" fill="#6f95cd"/><path data-name="Path 632" d="M265.786 123.614a8.36 8.36 0 1 1-8.36-8.36 8.364 8.364 0 0 1 8.36 8.36z" fill="#6f95cd"/><path data-name="Path 633" d="M265.786 140.333a8.36 8.36 0 1 1-8.36-8.359 8.363 8.363 0 0 1 8.36 8.359z" fill="#6f95cd"/><path data-name="Path 634" d="M265.786 157.053a8.36 8.36 0 1 1-8.36-8.36 8.363 8.363 0 0 1 8.36 8.36z" fill="#6f95cd"/><path data-name="Path 635" d="M265.786 173.773a8.36 8.36 0 1 1-8.36-8.36 8.363 8.363 0 0 1 8.36 8.36z" fill="#cd117a"/><path data-name="Path 636" d="M265.786 190.493a8.36 8.36 0 1 1-8.36-8.36 8.363 8.363 0 0 1 8.36 8.36z" fill="#6f95cd"/><path data-name="Path 637" d="M265.786 207.213a8.36 8.36 0 1 1-8.36-8.36 8.364 8.364 0 0 1 8.36 8.36z" fill="#6f95cd"/><path data-name="Path 638" d="M265.786 223.932a8.36 8.36 0 1 1-8.36-8.359 8.363 8.363 0 0 1 8.36 8.359z" fill="#6f95cd"/><path data-name="Path 639" d="M265.786 240.653a8.36 8.36 0 1 1-8.36-8.36 8.363 8.363 0 0 1 8.36 8.36z" fill="#6f95cd"/><path data-name="Path 640" d="M265.786 257.373a8.36 8.36 0 1 1-8.36-8.36 8.363 8.363 0 0 1 8.36 8.36z" fill="#6f95cd"/><path data-name="Path 641" d="M265.786 274.092a8.36 8.36 0 1 1-8.36-8.36 8.363 8.363 0 0 1 8.36 8.36z" fill="#6f95cd"/><path data-name="Path 642" d="M265.786 290.817a8.36 8.36 0 1 1-8.36-8.36 8.364 8.364 0 0 1 8.36 8.36z" fill="#6f95cd"/><path data-name="Path 643" d="M265.786 307.529a8.36 8.36 0 1 1-8.36-8.359 8.363 8.363 0 0 1 8.36 8.359z" fill="#6f95cd"/><path data-name="Path 644" d="M265.786 324.252a8.36 8.36 0 1 1-8.36-8.36 8.363 8.363 0 0 1 8.36 8.36z" fill="#6f95cd"/><path data-name="Path 645" d="M265.786 340.973a8.36 8.36 0 1 1-8.36-8.36 8.363 8.363 0 0 1 8.36 8.36z" fill="#6f95cd"/><path data-name="Path 646" d="M265.731 357.692a8.305 8.305 0 1 1-8.3-8.3 8.308 8.308 0 0 1 8.3 8.3z" fill="#6f95cd"/><path data-name="Path 647" d="M263.107 374.417a5.681 5.681 0 1 1-5.681-5.681 5.683 5.683 0 0 1 5.681 5.681z" fill="#6f95cd"/><path data-name="Path 648" d="M281.907 40.014a7.761 7.761 0 1 1-7.761-7.761 7.764 7.764 0 0 1 7.761 7.761z" fill="#cd117a"/><path data-name="Path 649" d="M282.505 56.733a8.36 8.36 0 1 1-8.359-8.359 8.363 8.363 0 0 1 8.359 8.359z" fill="#6f95cd"/><path data-name="Path 650" d="M282.505 73.457a8.36 8.36 0 1 1-8.359-8.36 8.363 8.363 0 0 1 8.359 8.36z" fill="#6f95cd"/><path data-name="Path 651" d="M282.505 90.174a8.36 8.36 0 1 1-8.359-8.36 8.362 8.362 0 0 1 8.359 8.36z" fill="#6f95cd"/><path data-name="Path 652" d="M282.505 106.893a8.36 8.36 0 1 1-8.359-8.36 8.363 8.363 0 0 1 8.359 8.36z" fill="#6f95cd"/><path data-name="Path 653" d="M282.505 123.614a8.36 8.36 0 1 1-8.359-8.36 8.363 8.363 0 0 1 8.359 8.36z" fill="#6f95cd"/><path data-name="Path 654" d="M282.505 140.333a8.36 8.36 0 1 1-8.359-8.359 8.363 8.363 0 0 1 8.359 8.359z" fill="#6f95cd"/><path data-name="Path 655" d="M282.505 157.053a8.36 8.36 0 1 1-8.359-8.36 8.363 8.363 0 0 1 8.359 8.36z" fill="#cd117a"/><path data-name="Path 656" d="M282.505 173.773a8.36 8.36 0 1 1-8.359-8.36 8.362 8.362 0 0 1 8.359 8.36z" fill="#cd117a"/><path data-name="Path 657" d="M282.505 190.493a8.36 8.36 0 1 1-8.359-8.36 8.363 8.363 0 0 1 8.359 8.36z" fill="#6f95cd"/><path data-name="Path 658" d="M282.505 207.213a8.36 8.36 0 1 1-8.359-8.36 8.363 8.363 0 0 1 8.359 8.36z" fill="#6f95cd"/><path data-name="Path 659" d="M282.505 223.932a8.36 8.36 0 1 1-8.359-8.359 8.363 8.363 0 0 1 8.359 8.359z" fill="#6f95cd"/><path data-name="Path 660" d="M282.505 240.653a8.36 8.36 0 1 1-8.359-8.36 8.363 8.363 0 0 1 8.359 8.36z" fill="#6f95cd"/><path data-name="Path 661" d="M282.505 257.373a8.36 8.36 0 1 1-8.359-8.36 8.362 8.362 0 0 1 8.359 8.36z" fill="#6f95cd"/><path data-name="Path 662" d="M282.505 274.092a8.36 8.36 0 1 1-8.359-8.36 8.363 8.363 0 0 1 8.359 8.36z" fill="#6f95cd"/><path data-name="Path 663" d="M282.505 290.817a8.36 8.36 0 1 1-8.359-8.36 8.364 8.364 0 0 1 8.359 8.36z" fill="#6f95cd"/><path data-name="Path 664" d="M282.505 307.529a8.36 8.36 0 1 1-8.359-8.359 8.363 8.363 0 0 1 8.359 8.359z" fill="#6f95cd"/><path data-name="Path 665" d="M282.505 324.252a8.36 8.36 0 1 1-8.359-8.36 8.363 8.363 0 0 1 8.359 8.36z" fill="#6f95cd"/><path data-name="Path 666" d="M282.505 340.973a8.36 8.36 0 1 1-8.359-8.36 8.362 8.362 0 0 1 8.359 8.36z" fill="#6f95cd"/><path data-name="Path 667" d="M281.981 357.691a7.836 7.836 0 1 1-7.835-7.835 7.84 7.84 0 0 1 7.835 7.835z" fill="#6f95cd"/><path data-name="Path 668" d="M298.525 40.014a7.658 7.658 0 1 1-7.659-7.659 7.661 7.661 0 0 1 7.659 7.659z" fill="#6f95cd"/><path data-name="Path 669" d="M299.225 56.733a8.36 8.36 0 1 1-8.36-8.359 8.363 8.363 0 0 1 8.36 8.359z" fill="#6f95cd"/><path data-name="Path 670" d="M299.225 73.457a8.36 8.36 0 1 1-8.36-8.36 8.363 8.363 0 0 1 8.36 8.36z" fill="#6f95cd"/><path data-name="Path 671" d="M299.225 90.174a8.36 8.36 0 1 1-8.36-8.36 8.363 8.363 0 0 1 8.36 8.36z" fill="#6f95cd"/><path data-name="Path 672" d="M299.225 106.893a8.36 8.36 0 1 1-8.36-8.36 8.363 8.363 0 0 1 8.36 8.36z" fill="#6f95cd"/><path data-name="Path 673" d="M299.225 123.614a8.36 8.36 0 1 1-8.36-8.36 8.364 8.364 0 0 1 8.36 8.36z" fill="#6f95cd"/><path data-name="Path 674" d="M299.225 140.333a8.36 8.36 0 1 1-8.36-8.359 8.363 8.363 0 0 1 8.36 8.359z" fill="#6f95cd"/><path data-name="Path 675" d="M299.225 157.053a8.36 8.36 0 1 1-8.36-8.36 8.363 8.363 0 0 1 8.36 8.36z" fill="#6f95cd"/><path data-name="Path 676" d="M299.225 173.773a8.36 8.36 0 1 1-8.36-8.36 8.363 8.363 0 0 1 8.36 8.36z" fill="#6f95cd"/><path data-name="Path 677" d="M299.225 190.493a8.36 8.36 0 1 1-8.36-8.36 8.363 8.363 0 0 1 8.36 8.36z" fill="#6f95cd"/><path data-name="Path 678" d="M299.225 207.213a8.36 8.36 0 1 1-8.36-8.36 8.364 8.364 0 0 1 8.36 8.36z" fill="#6f95cd"/><path data-name="Path 679" d="M299.225 223.932a8.36 8.36 0 1 1-8.36-8.359 8.363 8.363 0 0 1 8.36 8.359z" fill="#6f95cd"/><path data-name="Path 680" d="M299.225 240.653a8.36 8.36 0 1 1-8.36-8.36 8.363 8.363 0 0 1 8.36 8.36z" fill="#cd117a"/><path data-name="Path 681" d="M299.225 257.373a8.36 8.36 0 1 1-8.36-8.36 8.363 8.363 0 0 1 8.36 8.36z" fill="#6f95cd"/><path data-name="Path 682" d="M299.225 274.092a8.36 8.36 0 1 1-8.36-8.36 8.363 8.363 0 0 1 8.36 8.36z" fill="#6f95cd"/><path data-name="Path 683" d="M299.225 290.817a8.36 8.36 0 1 1-8.36-8.36 8.364 8.364 0 0 1 8.36 8.36z" fill="#6f95cd"/><path data-name="Path 684" d="M299.225 307.529a8.36 8.36 0 1 1-8.36-8.359 8.363 8.363 0 0 1 8.36 8.359z" fill="#6f95cd"/><path data-name="Path 685" d="M299.225 324.252a8.36 8.36 0 1 1-8.36-8.36 8.363 8.363 0 0 1 8.36 8.36z" fill="#6f95cd"/><path data-name="Path 686" d="M299.225 340.973a8.36 8.36 0 1 1-8.36-8.36 8.363 8.363 0 0 1 8.36 8.36z" fill="#6f95cd"/><path data-name="Path 687" d="M312.527 357.692a4.941 4.941 0 1 1-4.941-4.941 4.943 4.943 0 0 1 4.941 4.941z" fill="#6f95cd"/><path data-name="Path 688" d="M315.446 40.014a7.861 7.861 0 1 1-7.86-7.862 7.863 7.863 0 0 1 7.86 7.862z" fill="#6f95cd"/><path data-name="Path 689" d="M315.944 56.733a8.36 8.36 0 1 1-8.36-8.359 8.363 8.363 0 0 1 8.36 8.359z" fill="#6f95cd"/><path data-name="Path 690" d="M315.944 73.457a8.36 8.36 0 1 1-8.36-8.36 8.363 8.363 0 0 1 8.36 8.36z" fill="#6f95cd"/><path data-name="Path 691" d="M315.944 90.174a8.36 8.36 0 1 1-8.36-8.36 8.363 8.363 0 0 1 8.36 8.36z" fill="#6f95cd"/><path data-name="Path 692" d="M315.944 106.893a8.36 8.36 0 1 1-8.36-8.36 8.363 8.363 0 0 1 8.36 8.36z" fill="#6f95cd"/><path data-name="Path 693" d="M315.944 123.614a8.36 8.36 0 1 1-8.36-8.36 8.364 8.364 0 0 1 8.36 8.36z" fill="#6f95cd"/><path data-name="Path 694" d="M315.944 140.333a8.36 8.36 0 1 1-8.36-8.359 8.363 8.363 0 0 1 8.36 8.359z" fill="#6f95cd"/><path data-name="Path 695" d="M315.944 157.053a8.36 8.36 0 1 1-8.36-8.36 8.363 8.363 0 0 1 8.36 8.36z" fill="#6f95cd"/><path data-name="Path 696" d="M315.944 173.773a8.36 8.36 0 1 1-8.36-8.36 8.363 8.363 0 0 1 8.36 8.36z" fill="#6f95cd"/><path data-name="Path 697" d="M315.944 190.493a8.36 8.36 0 1 1-8.36-8.36 8.363 8.363 0 0 1 8.36 8.36z" fill="#6f95cd"/><path data-name="Path 698" d="M315.944 207.213a8.36 8.36 0 1 1-8.36-8.36 8.364 8.364 0 0 1 8.36 8.36z" fill="#6f95cd"/><path data-name="Path 699" d="M315.944 223.932a8.36 8.36 0 1 1-8.36-8.359 8.363 8.363 0 0 1 8.36 8.359z" fill="#6f95cd"/><path data-name="Path 700" d="M315.944 240.653a8.36 8.36 0 1 1-8.36-8.36 8.363 8.363 0 0 1 8.36 8.36z" fill="#6f95cd"/><path data-name="Path 701" d="M315.944 257.373a8.36 8.36 0 1 1-8.36-8.36 8.363 8.363 0 0 1 8.36 8.36z" fill="#6f95cd"/><path data-name="Path 702" d="M315.944 274.092a8.36 8.36 0 1 1-8.36-8.36 8.363 8.363 0 0 1 8.36 8.36z" fill="#6f95cd"/><path data-name="Path 703" d="M315.944 290.817a8.36 8.36 0 1 1-8.36-8.36 8.364 8.364 0 0 1 8.36 8.36z" fill="#6f95cd"/><path data-name="Path 704" d="M315.944 307.529a8.36 8.36 0 1 1-8.36-8.359 8.363 8.363 0 0 1 8.36 8.359z" fill="#6f95cd"/><path data-name="Path 705" d="M315.944 324.252a8.36 8.36 0 1 1-8.36-8.36 8.363 8.363 0 0 1 8.36 8.36z" fill="#6f95cd"/><path data-name="Path 706" d="M315.944 340.973a8.36 8.36 0 1 1-8.36-8.36 8.363 8.363 0 0 1 8.36 8.36z" fill="#6f95cd"/><path data-name="Path 707" d="M332.487 40.014a8.181 8.181 0 1 1-8.182-8.182 8.184 8.184 0 0 1 8.182 8.182z" fill="#6f95cd"/><path data-name="Path 708" d="M332.665 56.733a8.36 8.36 0 1 1-8.36-8.359 8.363 8.363 0 0 1 8.36 8.359z" fill="#6f95cd"/><path data-name="Path 709" d="M332.665 73.457a8.36 8.36 0 1 1-8.36-8.36 8.363 8.363 0 0 1 8.36 8.36z" fill="#6f95cd"/><path data-name="Path 710" d="M332.665 90.174a8.36 8.36 0 1 1-8.36-8.36 8.363 8.363 0 0 1 8.36 8.36z" fill="#6f95cd"/><path data-name="Path 711" d="M332.665 106.893a8.36 8.36 0 1 1-8.36-8.36 8.363 8.363 0 0 1 8.36 8.36z" fill="#6f95cd"/><path data-name="Path 712" d="M332.665 123.614a8.36 8.36 0 1 1-8.36-8.36 8.364 8.364 0 0 1 8.36 8.36z" fill="#6f95cd"/><path data-name="Path 713" d="M332.665 140.333a8.36 8.36 0 1 1-8.36-8.359 8.363 8.363 0 0 1 8.36 8.359z" fill="#6f95cd"/><path data-name="Path 714" d="M332.665 157.053a8.36 8.36 0 1 1-8.36-8.36 8.363 8.363 0 0 1 8.36 8.36z" fill="#6f95cd"/><path data-name="Path 715" d="M332.665 173.773a8.36 8.36 0 1 1-8.36-8.36 8.363 8.363 0 0 1 8.36 8.36z" fill="#cd117a"/><path data-name="Path 716" d="M332.665 190.493a8.36 8.36 0 1 1-8.36-8.36 8.363 8.363 0 0 1 8.36 8.36z" fill="#6f95cd"/><path data-name="Path 717" d="M332.665 207.213a8.36 8.36 0 1 1-8.36-8.36 8.364 8.364 0 0 1 8.36 8.36z" fill="#6f95cd"/><path data-name="Path 718" d="M332.665 223.932a8.36 8.36 0 1 1-8.36-8.359 8.363 8.363 0 0 1 8.36 8.359z" fill="#6f95cd"/><path data-name="Path 719" d="M332.665 240.653a8.36 8.36 0 1 1-8.36-8.36 8.363 8.363 0 0 1 8.36 8.36z" fill="#6f95cd"/><path data-name="Path 720" d="M332.665 257.373a8.36 8.36 0 1 1-8.36-8.36 8.363 8.363 0 0 1 8.36 8.36z" fill="#6f95cd"/><path data-name="Path 721" d="M332.665 274.092a8.36 8.36 0 1 1-8.36-8.36 8.363 8.363 0 0 1 8.36 8.36z" fill="#6f95cd"/><path data-name="Path 722" d="M332.665 290.817a8.36 8.36 0 1 1-8.36-8.36 8.364 8.364 0 0 1 8.36 8.36z" fill="#cd117a"/><path data-name="Path 723" d="M332.665 307.529a8.36 8.36 0 1 1-8.36-8.359 8.363 8.363 0 0 1 8.36 8.359z" fill="#6f95cd"/><path data-name="Path 724" d="M332.665 324.252a8.36 8.36 0 1 1-8.36-8.36 8.363 8.363 0 0 1 8.36 8.36z" fill="#6f95cd"/><path data-name="Path 725" d="M332.665 340.973a8.36 8.36 0 1 1-8.36-8.36 8.363 8.363 0 0 1 8.36 8.36z" fill="#6f95cd"/><path data-name="Path 726" d="M331.447 357.692a7.142 7.142 0 1 1-7.142-7.142 7.145 7.145 0 0 1 7.142 7.142z" fill="#6f95cd"/><path data-name="Path 727" d="M347.042 23.293a6.016 6.016 0 1 1-6.017-6.015 6.019 6.019 0 0 1 6.017 6.015z" fill="#6f95cd"/><path data-name="Path 728" d="M349.371 40.014a8.349 8.349 0 1 1-8.349-8.349 8.353 8.353 0 0 1 8.349 8.349z" fill="#6f95cd"/><path data-name="Path 729" d="M349.385 56.733a8.36 8.36 0 1 1-8.36-8.359 8.363 8.363 0 0 1 8.36 8.359z" fill="#6f95cd"/><path data-name="Path 730" d="M349.385 73.457a8.36 8.36 0 1 1-8.36-8.36 8.363 8.363 0 0 1 8.36 8.36z" fill="#6f95cd"/><path data-name="Path 731" d="M349.385 90.174a8.36 8.36 0 1 1-8.36-8.36 8.363 8.363 0 0 1 8.36 8.36z" fill="#6f95cd"/><path data-name="Path 732" d="M349.385 106.893a8.36 8.36 0 1 1-8.36-8.36 8.363 8.363 0 0 1 8.36 8.36z" fill="#6f95cd"/><path data-name="Path 733" d="M349.385 123.614a8.36 8.36 0 1 1-8.36-8.36 8.364 8.364 0 0 1 8.36 8.36z" fill="#6f95cd"/><path data-name="Path 734" d="M349.385 140.333a8.36 8.36 0 1 1-8.36-8.359 8.363 8.363 0 0 1 8.36 8.359z" fill="#6f95cd"/><path data-name="Path 735" d="M349.385 157.053a8.36 8.36 0 1 1-8.36-8.36 8.363 8.363 0 0 1 8.36 8.36z" fill="#6f95cd"/><path data-name="Path 736" d="M349.385 173.773a8.36 8.36 0 1 1-8.36-8.36 8.363 8.363 0 0 1 8.36 8.36z" fill="#cd117a"/><path data-name="Path 737" d="M349.385 190.493a8.36 8.36 0 1 1-8.36-8.36 8.363 8.363 0 0 1 8.36 8.36z" fill="#6f95cd"/><path data-name="Path 738" d="M349.385 207.213a8.36 8.36 0 1 1-8.36-8.36 8.364 8.364 0 0 1 8.36 8.36z" fill="#6f95cd"/><path data-name="Path 739" d="M349.385 223.932a8.36 8.36 0 1 1-8.36-8.359 8.363 8.363 0 0 1 8.36 8.359z" fill="#6f95cd"/><path data-name="Path 740" d="M349.385 240.653a8.36 8.36 0 1 1-8.36-8.36 8.363 8.363 0 0 1 8.36 8.36z" fill="#6f95cd"/><path data-name="Path 741" d="M349.385 257.373a8.36 8.36 0 1 1-8.36-8.36 8.363 8.363 0 0 1 8.36 8.36z" fill="#6f95cd"/><path data-name="Path 742" d="M349.385 274.092a8.36 8.36 0 1 1-8.36-8.36 8.363 8.363 0 0 1 8.36 8.36z" fill="#cd117a"/><path data-name="Path 743" d="M349.385 290.817a8.36 8.36 0 1 1-8.36-8.36 8.364 8.364 0 0 1 8.36 8.36z" fill="#6f95cd"/><path data-name="Path 744" d="M349.385 307.529a8.36 8.36 0 1 1-8.36-8.359 8.363 8.363 0 0 1 8.36 8.359z" fill="#6f95cd"/><path data-name="Path 745" d="M349.385 324.252a8.36 8.36 0 1 1-8.36-8.36 8.363 8.363 0 0 1 8.36 8.36z" fill="#6f95cd"/><path data-name="Path 746" d="M349.385 340.973a8.36 8.36 0 1 1-8.36-8.36 8.363 8.363 0 0 1 8.36 8.36z" fill="#6f95cd"/><path data-name="Path 747" d="M349.292 357.69a8.272 8.272 0 1 1-8.272-8.272 8.275 8.275 0 0 1 8.272 8.272z" fill="#6f95cd"/><path data-name="Path 748" d="M362.844 23.293a5.1 5.1 0 1 1-5.1-5.1 5.1 5.1 0 0 1 5.1 5.1z" fill="#6f95cd"/><path data-name="Path 749" d="M365.667 40.014a7.922 7.922 0 1 1-7.921-7.922 7.926 7.926 0 0 1 7.921 7.922z" fill="#6f95cd"/><path data-name="Path 750" d="M366.105 56.733a8.36 8.36 0 1 1-8.359-8.359 8.363 8.363 0 0 1 8.359 8.359z" fill="#6f95cd"/><path data-name="Path 751" d="M366.105 73.457a8.36 8.36 0 1 1-8.359-8.36 8.363 8.363 0 0 1 8.359 8.36z" fill="#6f95cd"/><path data-name="Path 752" d="M366.105 90.174a8.36 8.36 0 1 1-8.359-8.36 8.362 8.362 0 0 1 8.359 8.36z" fill="#6f95cd"/><path data-name="Path 753" d="M366.105 106.893a8.36 8.36 0 1 1-8.359-8.36 8.363 8.363 0 0 1 8.359 8.36z" fill="#6f95cd"/><path data-name="Path 754" d="M366.105 123.614a8.36 8.36 0 1 1-8.359-8.36 8.364 8.364 0 0 1 8.359 8.36z" fill="#6f95cd"/><path data-name="Path 755" d="M366.105 140.333a8.36 8.36 0 1 1-8.359-8.359 8.363 8.363 0 0 1 8.359 8.359z" fill="#6f95cd"/><path data-name="Path 756" d="M366.105 157.053a8.36 8.36 0 1 1-8.359-8.36 8.363 8.363 0 0 1 8.359 8.36z" fill="#6f95cd"/><path data-name="Path 757" d="M366.105 173.773a8.36 8.36 0 1 1-8.359-8.36 8.362 8.362 0 0 1 8.359 8.36z" fill="#cd117a"/><path data-name="Path 758" d="M366.105 190.493a8.36 8.36 0 1 1-8.359-8.36 8.363 8.363 0 0 1 8.359 8.36z" fill="#cd117a"/><path data-name="Path 759" d="M366.105 207.213a8.36 8.36 0 1 1-8.359-8.36 8.364 8.364 0 0 1 8.359 8.36z" fill="#6f95cd"/><path data-name="Path 760" d="M366.105 223.932a8.36 8.36 0 1 1-8.359-8.359 8.363 8.363 0 0 1 8.359 8.359z" fill="#6f95cd"/><path data-name="Path 761" d="M366.105 240.653a8.36 8.36 0 1 1-8.359-8.36 8.363 8.363 0 0 1 8.359 8.36z" fill="#6f95cd"/><path data-name="Path 762" d="M366.105 257.373a8.36 8.36 0 1 1-8.359-8.36 8.362 8.362 0 0 1 8.359 8.36z" fill="#6f95cd"/><path data-name="Path 763" d="M366.105 274.092a8.36 8.36 0 1 1-8.359-8.36 8.363 8.363 0 0 1 8.359 8.36z" fill="#6f95cd"/><path data-name="Path 764" d="M366.105 290.817a8.36 8.36 0 1 1-8.359-8.36 8.364 8.364 0 0 1 8.359 8.36z" fill="#6f95cd"/><path data-name="Path 765" d="M366.105 307.529a8.36 8.36 0 1 1-8.359-8.359 8.363 8.363 0 0 1 8.359 8.359z" fill="#6f95cd"/><path data-name="Path 766" d="M366.105 324.252a8.36 8.36 0 1 1-8.359-8.36 8.363 8.363 0 0 1 8.359 8.36z" fill="#6f95cd"/><path data-name="Path 767" d="M365.93 340.973a8.181 8.181 0 1 1-8.181-8.182 8.184 8.184 0 0 1 8.181 8.182z" fill="#6f95cd"/><path data-name="Path 768" d="M365.96 357.692a8.215 8.215 0 1 1-8.215-8.215 8.218 8.218 0 0 1 8.215 8.215z" fill="#6f95cd"/><path data-name="Path 769" d="M364.976 374.413a7.231 7.231 0 1 1-7.231-7.231 7.234 7.234 0 0 1 7.231 7.231z" fill="#6f95cd"/><path data-name="Path 770" d="M379.115 40.014a4.654 4.654 0 1 1-4.655-4.655 4.656 4.656 0 0 1 4.655 4.655z" fill="#6f95cd"/><path data-name="Path 771" d="M380.986 56.733a6.521 6.521 0 1 1-6.521-6.519 6.522 6.522 0 0 1 6.521 6.519z" fill="#6f95cd"/><path data-name="Path 772" d="M382.162 73.453a7.7 7.7 0 1 1-7.7-7.7 7.7 7.7 0 0 1 7.7 7.7z" fill="#6f95cd"/><path data-name="Path 773" d="M382.799 90.175a8.338 8.338 0 1 1-8.338-8.338 8.341 8.341 0 0 1 8.338 8.338z" fill="#6f95cd"/><path data-name="Path 774" d="M382.825 106.893a8.36 8.36 0 1 1-8.36-8.36 8.363 8.363 0 0 1 8.36 8.36z" fill="#6f95cd"/><path data-name="Path 775" d="M382.825 123.614a8.36 8.36 0 1 1-8.36-8.36 8.364 8.364 0 0 1 8.36 8.36z" fill="#6f95cd"/><path data-name="Path 776" d="M382.6 140.333a8.135 8.135 0 1 1-8.135-8.135 8.139 8.139 0 0 1 8.135 8.135z" fill="#6f95cd"/><path data-name="Path 777" d="M382.123 173.774a7.658 7.658 0 1 1-7.659-7.659 7.661 7.661 0 0 1 7.659 7.659z" fill="#6f95cd"/><path data-name="Path 778" d="M382.825 190.493a8.36 8.36 0 1 1-8.36-8.36 8.363 8.363 0 0 1 8.36 8.36z" fill="#6f95cd"/><path data-name="Path 779" d="M382.825 207.213a8.36 8.36 0 1 1-8.36-8.36 8.364 8.364 0 0 1 8.36 8.36z" fill="#6f95cd"/><path data-name="Path 780" d="M382.825 223.932a8.36 8.36 0 1 1-8.36-8.359 8.363 8.363 0 0 1 8.36 8.359z" fill="#6f95cd"/><path data-name="Path 781" d="M382.825 240.653a8.36 8.36 0 1 1-8.36-8.36 8.363 8.363 0 0 1 8.36 8.36z" fill="#6f95cd"/><path data-name="Path 782" d="M382.825 257.373a8.36 8.36 0 1 1-8.36-8.36 8.363 8.363 0 0 1 8.36 8.36z" fill="#6f95cd"/><path data-name="Path 783" d="M382.825 274.092a8.36 8.36 0 1 1-8.36-8.36 8.363 8.363 0 0 1 8.36 8.36z" fill="#6f95cd"/><path data-name="Path 784" d="M382.825 290.817a8.36 8.36 0 1 1-8.36-8.36 8.364 8.364 0 0 1 8.36 8.36z" fill="#6f95cd"/><path data-name="Path 785" d="M382.825 307.529a8.36 8.36 0 1 1-8.36-8.359 8.363 8.363 0 0 1 8.36 8.359z" fill="#6f95cd"/><path data-name="Path 786" d="M381.592 324.252a7.127 7.127 0 1 1-7.127-7.127 7.129 7.129 0 0 1 7.127 7.127z" fill="#6f95cd"/><path data-name="Path 787" d="M398.252 106.893a7.066 7.066 0 1 1-7.066-7.066 7.068 7.068 0 0 1 7.066 7.066z" fill="#6f95cd"/><path data-name="Path 788" d="M399.009 123.613a7.824 7.824 0 1 1-7.823-7.824 7.826 7.826 0 0 1 7.823 7.824z" fill="#6f95cd"/><path data-name="Path 789" d="M397.615 190.493a6.43 6.43 0 1 1-6.43-6.43 6.432 6.432 0 0 1 6.43 6.43z" fill="#6f95cd"/><path data-name="Path 790" d="M397.283 207.214a6.1 6.1 0 1 1-6.1-6.1 6.1 6.1 0 0 1 6.1 6.1z" fill="#6f95cd"/><path data-name="Path 791" d="M398.71 223.933a7.525 7.525 0 1 1-7.525-7.525 7.528 7.528 0 0 1 7.525 7.525z" fill="#6f95cd"/><path data-name="Path 792" d="M399.534 240.653a8.349 8.349 0 1 1-8.349-8.349 8.353 8.353 0 0 1 8.349 8.349z" fill="#6f95cd"/><path data-name="Path 793" d="M399.545 257.373a8.36 8.36 0 1 1-8.36-8.36 8.363 8.363 0 0 1 8.36 8.36z" fill="#6f95cd"/><path data-name="Path 794" d="M399.545 274.092a8.36 8.36 0 1 1-8.36-8.36 8.363 8.363 0 0 1 8.36 8.36z" fill="#6f95cd"/><path data-name="Path 795" d="M399.423 290.813a8.238 8.238 0 1 1-8.237-8.239 8.24 8.24 0 0 1 8.237 8.239z" fill="#6f95cd"/><path data-name="Path 796" d="M413.439 240.653a5.534 5.534 0 1 1-5.535-5.535 5.537 5.537 0 0 1 5.535 5.535z" fill="#6f95cd"/><path data-name="Path 797" d="M415.456 257.373a7.552 7.552 0 1 1-7.552-7.552 7.556 7.556 0 0 1 7.552 7.552z" fill="#6f95cd"/><path data-name="Path 798" d="M416.209 274.092a8.3 8.3 0 1 1-8.3-8.305 8.308 8.308 0 0 1 8.3 8.305z" fill="#6f95cd"/><path data-name="Path 799" d="M13.254 123.614a6.627 6.627 0 1 1-6.627-6.627 6.63 6.63 0 0 1 6.627 6.627z" fill="#6f95cd"/><path data-name="Path 800" d="M28.827 157.054a5.484 5.484 0 1 1-5.484-5.484 5.486 5.486 0 0 1 5.484 5.484z" fill="#6f95cd"/><path data-name="Path 801" d="M27.952 190.493a4.6 4.6 0 1 1-4.6-4.6 4.607 4.607 0 0 1 4.6 4.6z" fill="#6f95cd"/><path data-name="Path 802" d="M161.286 324.253a4.179 4.179 0 1 1-4.18-4.179 4.18 4.18 0 0 1 4.18 4.179z" fill="#6f95cd"/><path data-name="Path 803" d="M297.035 357.691a6.172 6.172 0 1 1-6.173-6.171 6.175 6.175 0 0 1 6.173 6.171z" fill="#6f95cd"/><path data-name="Path 804" d="M395.613 173.774a4.428 4.428 0 1 1-4.427-4.429 4.428 4.428 0 0 1 4.427 4.429z" fill="#6f95cd"/><path data-name="Path 805" d="M379.861 157.053a5.4 5.4 0 1 1-5.4-5.4 5.4 5.4 0 0 1 5.4 5.4z" fill="#6f95cd"/><path data-name="Path 806" d="M396.67 90.174a5.484 5.484 0 1 1-5.484-5.484 5.485 5.485 0 0 1 5.484 5.484z" fill="#6f95cd"/><path data-name="Path 807" d="M245.805 23.293a5.1 5.1 0 1 1-5.1-5.1 5.1 5.1 0 0 1 5.1 5.1z" fill="#6f95cd"/><path data-name="Path 808" d="M229.082 23.293a5.1 5.1 0 1 1-5.1-5.1 5.1 5.1 0 0 1 5.1 5.1z" fill="#6f95cd"/><path data-name="Path 809" d="M198.083 40.014a7.541 7.541 0 1 1-7.541-7.541 7.545 7.545 0 0 1 7.541 7.541z" fill="#6f95cd"/><path data-name="Path 810" d="M179.512 6.575a5.685 5.685 0 1 1-5.685-5.687 5.688 5.688 0 0 1 5.685 5.687z" fill="#6f95cd"/><path data-name="Path 811" d="M128.385 6.575a4.718 4.718 0 1 1-4.719-4.719 4.72 4.72 0 0 1 4.719 4.719z" fill="#6f95cd"/></g></svg>